<?xml version="1.0" standalone="no"?>
<!DOCTYPE svg PUBLIC "-//W3C//DTD SVG 20010904//EN"
 "http://www.w3.org/TR/2001/REC-SVG-20010904/DTD/svg10.dtd">
<svg version="1.0" xmlns="http://www.w3.org/2000/svg"
 width="5209.000000pt" height="5210.000000pt" viewBox="0 0 5209.000000 5210.000000"
 preserveAspectRatio="xMidYMid meet">

<g transform="translate(0.000000,5210.000000) scale(0.100000,-0.100000)"
fill="#2563EB" stroke="none">
<path d="M40459 45106 c-2 -2 -1372 -7 -3044 -11 -1672 -3 -3074 -10 -3116
-15 -147 -17 -271 -81 -376 -193 -57 -61 -115 -157 -134 -220 -26 -85 -29
-211 -31 -1382 -2 -682 -4 -1363 -6 -1512 l-3 -273 -1689 0 -1690 0 0 251 c0
242 -1 253 -26 327 -53 158 -170 273 -334 328 -53 18 -125 19 -1624 22 -863 1
-1571 4 -1573 5 -1 2 -3 192 -4 423 0 230 -5 451 -10 489 -55 444 -243 824
-560 1130 -57 55 -131 121 -164 146 -496 379 -1158 490 -1750 293 -610 -202
-1087 -709 -1242 -1319 -53 -208 -55 -233 -60 -712 l-5 -453 -1566 -2 -1567
-3 -65 -23 c-166 -60 -281 -175 -332 -332 -18 -57 -22 -95 -26 -317 l-4 -253
-2832 -2 -2831 -3 -78 -22 c-43 -13 -118 -39 -165 -60 l-87 -37 -360 -7 c-313
-5 -371 -9 -445 -27 -430 -103 -763 -441 -843 -857 -14 -71 -16 -503 -21
-3732 l-5 -3653 54 0 c221 0 476 -87 607 -208 129 -119 183 -245 181 -422 -2
-220 -104 -443 -280 -611 -58 -56 -172 -129 -201 -129 -7 0 -32 64 -32 82 0 3
24 17 54 32 95 46 185 141 258 271 174 309 135 592 -102 750 -158 105 -421
160 -592 124 -64 -14 -168 -65 -263 -129 -224 -151 -464 -238 -800 -290 -77
-12 -167 -30 -200 -41 -231 -71 -445 -354 -445 -589 0 -76 12 -115 87 -273 35
-76 76 -181 90 -235 23 -87 26 -118 27 -302 2 -189 4 -208 24 -247 12 -22 33
-50 47 -61 29 -23 105 -42 170 -42 24 0 47 -5 50 -10 4 -6 9 -43 12 -83 18
-252 123 -404 292 -424 l51 -6 0 -122 c0 -144 -19 -219 -76 -304 -89 -131
-202 -200 -369 -226 -562 -87 -1257 -297 -1605 -487 -729 -397 -1322 -1337
-1694 -2684 -51 -186 -125 -506 -157 -677 l-22 -119 21 -20 c19 -20 22 -20
115 -4 52 9 101 16 109 16 13 0 14 -29 10 -203 -11 -492 72 -909 258 -1292
171 -353 415 -625 745 -831 l77 -47 -6 -136 c-3 -75 -8 -228 -11 -341 -3 -113
-7 -279 -10 -370 -3 -91 -7 -255 -10 -365 -3 -110 -7 -263 -10 -340 -2 -77 -7
-243 -10 -370 -3 -126 -8 -279 -10 -340 -2 -60 -7 -218 -10 -350 -3 -132 -7
-283 -10 -335 -3 -52 -8 -237 -11 -411 -8 -383 -18 -360 133 -300 54 21 109
42 122 46 l24 7 -7 -158 c-4 -88 -9 -184 -11 -214 -5 -62 -5 -61 -45 -765 -39
-686 -40 -700 -45 -775 -3 -36 -16 -254 -30 -485 -66 -1100 -180 -2837 -199
-3035 -3 -25 -8 -88 -11 -140 -4 -52 -9 -106 -11 -120 -23 -145 -23 -1199 0
-1395 2 -16 7 -86 10 -155 4 -69 8 -141 11 -160 2 -19 7 -75 10 -125 10 -152
51 -580 80 -845 41 -369 141 -1097 192 -1399 l18 -105 70 2 c39 1 102 5 141 8
64 6 73 4 77 -12 3 -11 13 -98 23 -194 l17 -176 -48 -63 c-227 -298 -410 -778
-622 -1631 -74 -298 -80 -356 -43 -452 37 -101 136 -188 246 -217 153 -41 786
-65 1081 -42 321 26 410 50 494 134 85 84 121 199 101 321 -6 39 -20 127 -31
196 -27 170 -104 649 -146 905 -18 116 -57 356 -86 535 -51 321 -61 360 -96
360 -10 0 -13 38 -13 195 l0 195 65 0 65 0 1 68 c1 37 2 85 4 107 1 22 5 153
9 290 4 138 9 291 11 340 2 50 7 171 10 270 8 267 16 478 30 830 3 66 7 183
10 260 3 77 7 176 10 220 3 44 7 148 10 230 3 83 8 182 10 220 3 39 7 124 10
190 3 66 8 152 10 190 3 39 7 120 10 180 3 61 8 137 10 170 3 33 12 152 20
265 l16 205 49 115 c269 636 476 1261 594 1791 14 63 48 246 76 406 75 442
169 853 319 1403 124 452 370 1274 379 1265 4 -3 13 -147 27 -415 12 -230 25
-479 30 -555 2 -44 7 -129 10 -190 3 -60 7 -141 10 -180 2 -38 7 -126 10 -195
3 -69 8 -154 10 -190 2 -36 7 -117 10 -180 5 -110 8 -171 20 -375 10 -185 15
-273 20 -375 6 -120 23 -434 30 -560 3 -47 9 -175 15 -285 6 -110 12 -234 15
-275 2 -41 7 -124 10 -185 3 -60 8 -141 10 -180 2 -38 7 -124 10 -190 3 -66 8
-149 10 -185 3 -36 7 -114 10 -175 11 -214 105 -1971 110 -2040 2 -38 7 -124
10 -190 3 -66 8 -142 10 -170 2 -27 7 -115 11 -195 3 -80 8 -158 10 -175 1
-16 6 -158 9 -315 3 -157 12 -330 20 -385 8 -55 17 -147 20 -205 26 -487 37
-635 48 -642 7 -4 49 -8 95 -8 l82 0 1 -27 c0 -16 6 -103 12 -195 11 -153 11
-167 -4 -163 -9 3 -26 -3 -37 -12 -16 -14 -25 -45 -41 -148 -54 -343 -84 -686
-85 -985 l-1 -225 33 -67 c36 -73 91 -129 158 -159 91 -41 1743 -408 1979
-439 115 -15 375 -5 498 20 336 66 628 235 666 384 31 126 -53 288 -264 505
-176 181 -352 324 -602 488 -197 129 -334 245 -714 602 -331 312 -426 364
-547 304 l-42 -20 0 39 0 39 283 -4 c258 -4 289 -6 367 -27 l85 -24 1300 -3
c715 -2 1857 -3 2538 -3 l1237 0 0 -568 c0 -497 2 -570 16 -590 l15 -22 8490
0 c7623 0 8489 -2 8489 -15 0 -9 -21 -129 -46 -268 -42 -232 -45 -262 -41
-372 7 -179 52 -301 170 -454 195 -253 619 -362 927 -238 223 91 414 303 461
514 10 43 16 53 28 48 43 -17 276 -68 412 -89 314 -51 316 -51 1734 -51 1438
0 1428 0 1752 56 99 17 302 62 379 84 18 6 23 -1 38 -57 54 -198 210 -384 400
-477 109 -53 180 -71 311 -78 338 -16 626 149 775 446 89 177 94 320 26 684
-25 137 -46 257 -46 268 0 11 76 94 183 201 187 187 344 373 468 555 l70 103
302 0 c167 0 322 5 346 11 118 27 254 132 343 267 278 416 372 1178 221 1801
-115 476 -349 788 -607 808 -61 5 -67 8 -72 32 -133 595 -392 1146 -747 1589
l-75 93 45 111 c57 143 107 316 139 487 36 187 45 503 19 701 -29 235 -103
492 -208 724 -79 178 -116 224 -194 246 -91 26 -192 -18 -230 -102 -12 -23
-125 -341 -253 -705 -128 -365 -236 -663 -239 -663 -32 1 -35 24 -93 662 -32
354 -63 660 -69 682 -6 24 -28 56 -57 85 -84 84 -180 91 -301 25 -232 -127
-414 -328 -540 -595 -48 -102 -102 -257 -116 -331 -4 -21 -8 -38 -9 -38 0 0
-57 11 -126 24 -177 35 -334 54 -543 67 -213 12 -2652 6 -2759 -8 l-68 -8 0
1647 0 1648 168 0 c154 0 171 2 217 24 87 40 136 118 137 216 1 49 -41 164
-385 1060 -698 1820 -967 2521 -1090 2844 -171 449 -159 437 -487 446 -113 3
-204 8 -202 13 1 4 2 232 2 507 l0 500 63 -49 c249 -195 585 -332 910 -372
139 -17 443 -6 570 20 368 76 680 243 937 501 133 134 222 258 310 435 106
213 160 400 180 632 26 281 -35 597 -165 869 -231 480 -659 825 -1190 959
-181 46 -260 54 -495 51 -175 -3 -223 -8 -326 -30 -184 -39 -448 -137 -483
-179 -19 -24 -6 -65 23 -73 15 -3 42 4 77 21 255 130 609 195 899 166 246 -25
419 -74 635 -180 168 -83 292 -170 427 -300 246 -235 422 -561 484 -896 29
-152 26 -432 -5 -580 -71 -336 -212 -598 -450 -836 -455 -453 -1124 -612
-1743 -413 -559 180 -974 608 -1128 1164 -47 170 -65 448 -40 620 25 177 85
369 161 522 30 59 29 82 -2 99 -33 17 -59 -8 -105 -105 -297 -626 -178 -1383
297 -1891 l58 -61 1 -100 c1 -54 1 -305 1 -557 l-1 -459 -977 6 c-538 4 -1185
8 -1438 11 -253 3 -689 5 -970 5 l-510 0 -28 55 c-38 71 -111 139 -195 178
l-67 32 -519 3 c-578 3 -530 9 -467 -60 l25 -28 440 0 c468 0 506 -3 580 -49
34 -22 116 -104 116 -118 0 -5 -226 -6 -502 -4 l-502 3 35 -43 c20 -24 573
-708 1229 -1519 657 -811 1442 -1781 1745 -2155 303 -374 570 -704 593 -733
33 -43 42 -62 42 -94 0 -21 -5 -48 -10 -59 -11 -19 10 -19 1505 -19 1205 0
1515 -3 1515 -12 0 -7 1 -751 3 -1654 l2 -1640 -135 -23 c-428 -72 -867 -229
-1255 -449 -121 -68 -378 -241 -485 -326 l-95 -76 -460 0 c-424 0 -463 -2
-500 -19 -50 -22 -91 -69 -105 -119 -6 -24 -10 -265 -10 -669 l0 -631 -55
-141 c-100 -258 -178 -552 -220 -836 -9 -60 -17 -111 -19 -112 -1 -1 -25 14
-52 35 -27 21 -75 51 -106 67 -31 16 -61 39 -66 50 -5 11 -32 47 -59 80 l-50
60 -7 1180 c-3 649 -9 2081 -12 3183 l-7 2002 -50 0 -50 0 7 -1257 c3 -692 9
-2107 12 -3145 l7 -1887 -87 45 c-163 85 -368 116 -523 79 -74 -17 -183 -65
-229 -100 -18 -14 -35 -25 -38 -25 -3 0 -6 436 -6 968 0 1049 1 1024 -54 1097
-14 18 -49 45 -78 59 l-53 25 -1015 7 c-770 5 -1025 4 -1058 -5 -53 -15 -119
-73 -143 -126 -18 -38 -19 -125 -19 -1986 l0 -1945 26 -52 c31 -62 78 -101
142 -118 35 -9 257 -13 867 -16 1290 -5 1203 -6 1251 19 56 30 109 94 123 148
8 30 11 314 11 919 l0 876 57 45 c115 90 232 129 378 128 104 -1 191 -21 290
-68 106 -49 155 -89 155 -125 l0 -30 -63 0 c-214 0 -455 -161 -517 -344 -49
-147 -3 -307 123 -423 110 -102 259 -132 407 -83 30 10 56 18 56 17 1 -1 4
-602 6 -1335 l3 -1332 -2087 0 -2088 0 0 2780 0 2779 -21 56 c-27 72 -92 137
-161 162 -50 17 -119 18 -1348 18 -1293 0 -1295 0 -1340 -21 -62 -29 -105 -67
-138 -123 l-27 -46 -3 -2802 -2 -2803 -2069 0 -2068 0 -7 1108 c-7 1290 -14
2521 -21 3942 -22 4225 -27 5015 -29 5018 -2 1 -23 -21 -47 -49 l-44 -53 3
-925 c1 -509 4 -1122 7 -1361 3 -239 7 -1150 10 -2025 3 -874 7 -1741 10
-1925 3 -184 8 -1099 11 -2032 l7 -1698 -1853 -2 c-1018 -2 -1854 -1 -1856 1
-2 2 -4 2258 -4 5013 l0 5008 1510 0 1510 0 -6 43 c-4 31 -1 53 10 75 9 18
858 1042 1886 2277 1029 1235 1870 2247 1870 2249 0 8 -544 16 -1300 18 -454
1 -835 4 -847 6 -21 4 -23 10 -23 63 l0 59 1148 0 1148 0 37 45 38 45 -1186 0
-1185 0 0 545 0 545 1639 0 1639 0 42 50 42 50 -1681 0 -1681 0 0 325 0 325
1953 0 1952 0 38 48 39 47 -1991 3 c-1761 2 -1991 4 -1991 17 0 13 -70 15
-570 15 -498 0 -571 -2 -576 -15 -5 -13 -169 -15 -1393 -15 -1530 0 -1449 3
-1560 -63 -106 -64 -179 -172 -201 -298 -39 -224 126 -449 355 -483 17 -2 652
-5 1413 -5 l1382 -1 0 -545 0 -545 -1399 0 c-1366 0 -1400 0 -1463 -20 -245
-75 -363 -348 -255 -584 58 -125 197 -223 332 -234 55 -4 66 -8 62 -21 -2 -9
-309 -853 -682 -1876 -668 -1835 -677 -1861 -672 -1920 5 -70 23 -109 69 -155
61 -61 94 -70 281 -70 l167 0 0 -4415 0 -4415 -352 0 c-194 0 -1336 -1 -2538
-3 l-2185 -2 -75 22 c-178 50 -315 120 -425 216 l-40 35 43 218 c217 1112 389
2281 456 3094 35 426 46 652 46 970 0 146 -4 342 -10 435 -36 664 -43 1735
-24 3665 5 550 11 840 16 846 2 1 55 7 118 14 66 7 121 17 129 25 16 16 45
208 60 400 6 77 13 167 16 200 26 322 38 1545 21 2170 -15 597 -23 849 -31
1075 -3 69 -7 193 -10 275 -6 180 -12 314 -26 620 -18 408 -27 335 104 799 64
224 118 410 120 412 2 2 32 -7 68 -21 182 -72 713 -225 780 -225 18 0 19 -13
19 -463 0 -384 3 -473 15 -522 41 -155 155 -274 310 -322 57 -17 115 -18 1025
-18 l965 0 68 23 c124 43 231 144 280 265 20 48 22 77 27 372 3 176 7 551 8
834 l1 513 153 157 c323 329 589 712 817 1176 136 274 273 623 351 891 l33
112 69 7 c282 27 516 178 624 401 42 88 74 209 74 283 0 124 -57 257 -152 356
-32 32 -58 61 -58 63 0 2 44 51 97 110 109 121 246 290 300 371 75 112 91 240
43 348 -43 98 -67 104 -154 36 -417 -324 -556 -451 -729 -667 -121 -153 -279
-376 -409 -579 -60 -94 -126 -196 -145 -225 -66 -98 -247 -306 -418 -481 -655
-669 -1303 -1044 -1958 -1131 -43 -5 -166 -10 -273 -10 -274 0 -440 20 -671
81 -116 30 -307 99 -335 122 -15 11 -4 29 88 157 57 79 104 151 104 158 0 44
-1033 1061 -1486 1463 -382 340 -624 512 -786 561 l-40 12 6 1465 c3 806 8
2524 11 3816 3 1293 8 3120 11 4060 l5 1710 31 100 c84 280 265 494 523 620
125 62 220 90 350 105 59 6 1042 10 2833 10 l2742 0 0 -910 c0 -625 3 -926 11
-962 38 -181 186 -335 370 -383 47 -13 754 -15 5069 -15 5533 0 5065 -6 5192
62 72 38 176 146 212 220 36 73 57 185 56 288 -1 47 -1 448 -1 893 l1 807
1690 0 1690 0 0 -152 c0 -84 -1 -837 -2 -1673 -2 -836 -2 -2342 -1 -3347 l1
-1828 -7056 0 c-4723 0 -7072 -4 -7101 -11 -127 -29 -238 -119 -294 -236 -30
-64 -32 -75 -32 -178 0 -99 3 -116 28 -169 51 -111 135 -188 252 -232 49 -19
202 -19 7128 -22 l7077 -2 0 -178 c0 -1117 14 -3119 21 -3162 20 -117 96 -224
198 -279 118 -62 90 -61 1227 -54 l1031 6 -4 -1629 -4 -1629 50 52 51 52 0
1574 0 1574 1378 7 c757 3 2322 8 3477 11 1155 3 2143 8 2195 11 166 9 277 60
401 183 87 87 140 183 164 296 13 61 15 969 15 7196 0 4812 -3 7144 -10 7180
-29 152 -129 269 -274 319 -58 20 -77 20 -1631 20 -864 0 -1574 -2 -1576 -4z
m3201 -117 c77 -36 124 -80 157 -147 l28 -57 3 -7175 c2 -7151 2 -7175 -18
-7241 -50 -167 -206 -311 -375 -347 -33 -7 -507 -13 -1410 -16 -1877 -8 -5307
-18 -6750 -19 l-1200 -2 -50 23 c-63 29 -119 83 -153 147 l-27 50 -5 520 c-3
286 -7 1218 -8 2070 -1 853 -4 1561 -7 1575 -7 33 -7 3665 0 5280 3 701 7
2095 10 3097 5 1776 6 1824 25 1886 25 81 83 171 146 225 63 55 174 110 244
121 55 9 1343 15 5870 27 1328 4 2417 8 2419 10 2 2 239 3 525 1 l521 -2 55
-26z m-18467 -95 c770 -111 1384 -725 1502 -1502 23 -146 22 -3030 0 -3116
-31 -117 -113 -213 -230 -268 l-70 -33 -1449 -3 c-947 -1 -1468 1 -1504 8
-131 24 -237 106 -295 228 l-32 67 3 1495 c3 1596 3 1587 53 1782 179 705 758
1230 1478 1343 124 19 408 18 544 -1z m-2174 -3586 c-4 -1021 -4 -1023 18
-1085 54 -160 188 -287 348 -329 41 -11 326 -14 1526 -14 1440 0 1478 0 1540
20 157 48 278 169 331 329 22 66 22 71 26 1084 l4 1017 1576 -2 1577 -3 67
-32 c109 -52 181 -130 224 -243 16 -41 17 -141 15 -1255 -2 -788 -6 -1224 -13
-1250 -39 -154 -171 -274 -332 -304 -43 -8 -1466 -11 -5030 -10 -5389 0 -5013
-4 -5125 53 -69 35 -139 110 -175 186 l-31 65 -3 1210 c-1 783 1 1227 8 1257
31 147 162 283 306 317 23 5 697 9 1593 10 l1554 1 -4 -1022z m10731 -7318 l0
-330 -7065 0 -7064 0 -58 21 c-72 28 -144 94 -180 168 -37 74 -39 191 -6 263
29 63 96 134 158 166 l50 27 7080 5 c3894 3 7081 6 7083 8 1 1 2 -146 2 -328z
m-22005 -1845 c22 -10 74 -53 115 -94 60 -61 85 -95 122 -171 26 -52 56 -129
68 -170 11 -41 27 -98 36 -127 21 -75 80 -156 188 -261 53 -51 96 -97 96 -102
0 -14 -19 -28 -85 -65 l-60 -34 -1 -183 c0 -155 -4 -195 -22 -261 -38 -140
-105 -233 -199 -280 -64 -32 -93 -38 -177 -38 -177 1 -374 104 -507 266 -62
75 -90 90 -117 63 -31 -31 5 -93 115 -199 106 -103 199 -159 331 -199 39 -12
72 -23 72 -23 1 -1 5 -46 9 -99 24 -261 171 -476 400 -582 l52 -24 -68 -39
c-356 -203 -743 -262 -1159 -178 -143 29 -458 144 -441 161 3 4 41 21 84 40
150 65 254 159 318 286 60 121 66 171 63 553 l-3 340 -49 26 c-126 66 -188
213 -137 325 23 50 61 81 110 90 44 8 178 84 211 119 37 39 30 86 -34 235 -31
71 -56 131 -56 134 0 13 83 46 199 80 203 60 245 92 256 193 19 170 77 248
180 240 28 -2 68 -12 90 -22z m8339 -2177 c13 -51 6 -133 -18 -183 -37 -80
-164 -241 -367 -465 -96 -106 -115 -135 -101 -155 4 -6 30 -27 57 -47 48 -34
92 -82 126 -138 49 -79 64 -227 33 -331 -49 -163 -172 -313 -314 -382 -95 -47
-214 -77 -301 -77 -107 0 -112 -4 -139 -107 -119 -454 -367 -1014 -642 -1447
-495 -779 -1139 -1276 -1892 -1462 -247 -60 -405 -78 -701 -78 -340 0 -553 26
-900 109 -227 54 -655 194 -655 214 0 3 38 144 86 311 47 168 115 411 151 540
36 129 70 243 75 254 6 10 100 144 209 297 l200 278 66 -30 c172 -77 407 -142
635 -174 156 -23 466 -31 609 -16 668 69 1350 443 2015 1106 283 282 431 463
611 745 292 459 548 781 757 954 142 118 380 305 387 306 4 0 9 -10 13 -22z
m-7581 -438 c178 -28 382 -79 493 -125 276 -114 735 -509 1667 -1435 332 -329
477 -479 474 -491 -5 -19 -469 -671 -474 -666 -2 2 10 50 26 106 20 70 25 104
17 107 -6 2 -677 3 -1491 2 l-1480 -3 -71 -255 c-455 -1620 -547 -1946 -552
-1951 -10 -10 -229 -65 -347 -88 -207 -40 -337 -53 -535 -54 -270 0 -449 33
-650 122 -239 105 -443 307 -573 567 -71 142 -144 396 -162 564 -4 36 -9 74
-11 85 -3 11 -4 86 -4 167 0 153 -7 178 -47 178 -8 0 -117 -46 -242 -101 -124
-56 -422 -189 -661 -296 l-435 -195 -140 -23 c-77 -12 -162 -26 -188 -30 l-49
-7 6 29 c70 365 183 786 301 1132 344 1000 807 1710 1354 2075 287 192 846
393 1406 507 152 31 203 38 215 30 38 -28 265 -133 356 -165 527 -181 1053
-127 1510 157 50 31 96 63 103 71 6 8 19 12 29 10 9 -2 79 -13 155 -24z
m-3769 -3430 c3 -74 9 -153 12 -175 86 -641 399 -1077 899 -1255 356 -126 804
-121 1345 15 246 62 631 191 663 223 17 18 17 22 -7 112 -51 188 -70 331 -70
532 -1 206 5 232 43 179 59 -82 116 -248 136 -392 8 -63 54 -131 108 -163 24
-15 82 -36 128 -47 74 -19 102 -21 254 -16 204 6 378 34 661 106 227 58 339
76 444 68 90 -6 130 -22 130 -51 0 -149 -792 -606 -1259 -729 -96 -24 -137
-30 -236 -31 -113 -1 -123 1 -173 27 l-53 28 -32 -33 c-18 -19 -68 -78 -112
-133 -95 -119 -433 -461 -560 -567 -244 -203 -478 -358 -720 -478 -250 -123
-478 -196 -720 -231 -130 -19 -436 -16 -555 5 -605 108 -1078 401 -1385 856
-71 106 -172 312 -220 450 -70 202 -116 413 -142 655 -10 102 -8 518 3 538 6
10 111 63 235 118 123 55 339 151 479 214 140 63 354 158 475 213 121 54 221
98 221 98 1 -1 4 -62 8 -136z m8974 -1335 l-3 -650 -27 -57 c-37 -79 -98 -142
-177 -181 l-66 -32 -980 0 -980 0 -57 27 c-75 35 -138 94 -174 165 l-29 58 -3
476 -3 476 88 -13 c579 -82 1079 -37 1568 144 258 95 544 256 765 430 l75 59
3 -126 c1 -69 1 -418 0 -776z m4682 290 l0 -325 -1412 2 -1413 3 -47 23 c-62
31 -121 89 -155 154 -24 46 -28 65 -28 138 0 67 5 95 23 135 38 83 125 159
212 186 14 4 654 8 1423 8 l1397 1 0 -325z m-8465 -981 c5 -90 12 -262 20
-479 3 -82 7 -199 10 -260 2 -60 7 -209 11 -330 4 -121 8 -242 9 -270 8 -167
20 -1053 20 -1520 0 -479 -10 -1047 -20 -1170 -2 -22 -6 -83 -9 -135 -8 -114
-33 -358 -44 -420 -7 -44 -8 -45 -52 -51 -25 -4 -81 -9 -125 -13 -44 -3 -150
-11 -235 -18 -88 -7 -332 -12 -565 -12 -585 0 -760 22 -1110 139 -215 72 -347
108 -585 159 -641 137 -1397 206 -1932 177 -266 -14 -283 -15 -472 -42 -146
-21 -404 -83 -494 -118 -29 -12 -56 -21 -61 -21 -5 0 -7 19 -6 43 2 23 6 170
9 327 4 157 8 321 11 365 3 44 7 197 10 340 3 143 7 312 10 375 3 63 7 223 10
355 3 132 8 301 10 375 6 162 22 714 31 1075 4 143 7 261 9 263 1 1 33 -12 71
-29 176 -80 429 -154 625 -183 135 -20 409 -21 549 -1 144 20 331 68 480 123
268 98 605 291 855 488 l100 79 1360 5 1360 5 65 232 c36 127 66 230 67 229 2
-1 5 -38 8 -82z m8465 -683 l0 -59 -552 4 c-304 2 -828 6 -1164 9 -702 5 -683
7 -763 -73 -43 -44 -52 -63 -125 -266 l-79 -219 -68 6 c-87 7 -152 36 -211 94
-102 101 -129 252 -66 376 44 88 136 158 232 177 22 4 661 8 1419 9 l1377 1 0
-59z m19931 -7214 c19 -12 40 -35 47 -50 8 -16 37 -287 72 -679 33 -359 62
-662 65 -673 3 -12 53 -50 123 -95 799 -510 1375 -1308 1612 -2235 l39 -150
-237 -5 c-188 -5 -246 -9 -280 -23 -293 -114 -513 -565 -571 -1167 -12 -119
-6 -487 9 -600 47 -358 155 -667 301 -860 62 -82 148 -160 207 -188 17 -9 32
-19 32 -22 0 -9 -120 -177 -189 -265 -610 -777 -1500 -1287 -2476 -1419 -252
-34 -413 -38 -1710 -33 -1391 4 -1337 2 -1670 62 -1533 278 -2756 1501 -3040
3039 -46 250 -59 403 -59 686 0 283 13 436 59 686 219 1184 1002 2208 2090
2730 373 179 752 289 1205 351 111 15 275 17 1425 20 888 3 1348 1 1450 -7
185 -13 393 -43 544 -76 147 -33 151 -31 175 72 89 381 268 662 539 846 119
81 179 95 238 55z m-9950 -1799 c706 -4 666 0 709 -71 19 -31 20 -59 20 -1059
l0 -1027 -42 -60 c-40 -59 -41 -60 -24 -85 10 -16 26 -26 41 -26 l25 0 0 -817
c0 -794 -1 -819 -20 -850 -42 -69 29 -66 -1094 -58 -1112 8 -1042 3 -1090 68
l-21 28 -3 1902 c-2 1046 0 1920 3 1942 7 51 40 92 85 108 37 12 15 12 1411 5z
m3389 2 c3 0 -58 -64 -135 -142 -271 -275 -467 -537 -656 -877 l-59 -106 0
531 c0 528 0 531 21 558 12 15 30 31 40 34 12 5 689 7 789 2z m-26059 -450
c12 -7 19 -21 19 -40 0 -19 -7 -33 -19 -40 -12 -6 -104 -10 -230 -10 -206 0
-210 0 -225 22 -20 29 -20 34 4 58 19 19 33 20 226 20 122 0 213 -4 225 -10z
m19713 -113 c11 -8 16 -23 14 -39 -2 -17 -103 -141 -299 -365 -162 -186 -541
-620 -842 -965 -560 -642 -569 -652 -605 -616 -7 7 -12 21 -12 33 0 13 301
366 841 985 463 531 846 968 853 972 16 11 30 10 50 -5z m-15996 -129 c22 -22
13 -45 -74 -195 -298 -513 -552 -1049 -683 -1441 -71 -211 -121 -443 -121
-559 0 -40 -5 -58 -20 -73 -24 -24 -29 -25 -59 -3 -23 15 -24 20 -18 103 24
336 193 820 499 1430 134 268 345 652 395 718 25 33 59 42 81 20z m15900
-1190 c7 -7 12 -21 12 -32 0 -23 -1210 -1386 -1240 -1398 -26 -10 -62 19 -58
47 2 19 629 731 1141 1297 89 98 116 115 145 86z m15211 -334 c112 -50 202
-151 289 -322 103 -200 174 -463 200 -737 9 -102 9 -382 0 -505 -31 -403 -177
-801 -361 -982 -81 -80 -144 -111 -238 -116 -70 -4 -84 -2 -142 26 -228 106
-408 476 -479 982 -19 142 -17 554 5 706 52 369 179 684 342 849 129 131 247
161 384 99z m-10449 -217 c0 -57 3 -199 7 -315 l6 -212 -55 -25 c-166 -76
-344 -15 -426 146 -28 54 -33 75 -33 133 0 91 31 156 111 230 97 89 222 142
343 145 l47 1 0 -103z m153 59 c8 -8 22 -44 32 -79 35 -131 7 -321 -60 -402
l-24 -30 -1 263 c0 252 1 262 19 262 11 0 26 -7 34 -14z m229 -139 l46 -42 -8
-160 c-32 -571 87 -1200 330 -1745 191 -429 505 -881 837 -1202 74 -72 78 -77
54 -80 -14 -2 -365 -2 -778 0 l-753 2 1 803 c0 441 -3 1053 -6 1359 l-6 558
56 54 c100 99 155 258 142 421 -3 39 -9 79 -13 89 -7 18 -6 19 22 2 17 -10 51
-37 76 -59z m-21540 -2094 l-4 -147 -76 -80 c-41 -45 -116 -135 -165 -201 -50
-66 -95 -120 -101 -119 -20 2 -431 177 -437 186 -7 10 -34 417 -28 422 2 2 94
9 204 15 212 12 411 33 510 55 110 24 100 37 97 -131z m-3412 -165 l0 -223
-23 27 c-29 35 -78 58 -120 58 -19 0 -101 -9 -182 -20 -183 -24 -199 -33 -260
-143 -24 -45 -45 -80 -45 -77 -1 3 -3 21 -5 40 -25 198 -54 515 -48 520 4 4
71 10 148 14 304 14 390 19 393 21 1 1 34 3 72 4 l70 2 0 -223z m3742 -7 c76
-52 140 -109 449 -398 249 -232 374 -335 569 -465 206 -138 324 -229 467 -357
175 -158 304 -315 345 -423 37 -98 19 -145 -83 -222 -158 -119 -395 -202 -639
-223 -122 -11 -337 1 -470 27 -465 89 -1752 381 -1811 410 -53 28 -106 92
-124 152 -16 53 -16 125 0 413 6 105 34 438 40 475 2 14 14 97 25 185 12 88
23 161 25 163 1 2 127 -49 279 -113 172 -72 283 -114 295 -110 10 3 36 31 56
63 73 110 160 218 255 316 98 101 175 156 222 156 15 0 57 -21 100 -49z
m-3849 -243 c17 -17 29 -54 46 -141 21 -100 28 -121 46 -129 34 -15 58 3 79
64 l19 53 73 -455 c41 -250 94 -583 120 -740 25 -157 56 -350 70 -429 38 -226
30 -287 -45 -373 -43 -49 -102 -75 -202 -88 -46 -6 -97 -12 -114 -15 -113 -15
-448 -27 -610 -21 -282 9 -540 35 -602 61 -89 37 -163 142 -163 232 0 86 204
861 300 1138 96 276 248 608 319 694 l28 34 28 -74 c32 -83 50 -109 75 -109
24 0 41 22 109 146 34 62 67 116 74 122 9 8 232 44 315 51 7 0 23 -9 35 -21z"/>
<path fill="#000" d="M38525 43169 c-647 -61 -1239 -241 -1770 -538 -989 -553 -1727 -1471
-2030 -2526 -41 -146 -95 -390 -110 -500 -4 -27 -8 -61 -10 -73 -34 -218 -40
-687 -11 -922 90 -747 355 -1388 810 -1960 125 -157 414 -446 571 -572 471
-377 992 -636 1570 -778 675 -167 1405 -158 2102 26 1028 270 1922 906 2508
1784 385 577 606 1195 675 1885 16 160 5 681 -18 840 -125 866 -475 1577
-1072 2176 -638 640 -1423 1019 -2370 1145 -143 19 -694 28 -845 13z m484 -88
c11 -7 12 -35 7 -147 -4 -77 -9 -157 -11 -179 -2 -22 -9 -123 -15 -225 -5
-102 -12 -214 -15 -250 -3 -36 -21 -317 -40 -625 -19 -308 -37 -596 -40 -640
-15 -223 -35 -542 -35 -561 0 -20 -6 -21 -157 -27 -131 -4 -178 -10 -273 -35
-266 -69 -468 -187 -656 -384 -145 -153 -236 -304 -298 -498 -46 -142 -60
-231 -59 -380 1 -523 327 -965 835 -1135 399 -133 864 -56 1213 202 72 53 90
62 100 51 7 -7 239 -263 517 -568 277 -305 669 -736 871 -958 202 -222 367
-407 367 -410 -1 -11 -226 -186 -349 -272 -539 -377 -1207 -637 -1861 -724
-203 -27 -222 -28 -435 -35 -873 -26 -1647 192 -2355 664 -815 543 -1371 1359
-1570 2303 -59 283 -81 509 -79 811 3 331 39 610 118 916 448 1724 2013 2994
3826 3103 189 12 379 13 394 3z m2729 -1226 c432 -452 759 -1064 897 -1680 59
-263 83 -457 92 -740 18 -611 -113 -1216 -387 -1782 -174 -358 -371 -654 -631
-948 -109 -124 -301 -315 -316 -315 -5 0 -196 206 -425 458 -229 251 -626 687
-881 967 l-465 510 35 40 c322 376 421 808 283 1238 -46 143 -111 260 -222
400 l-22 28 964 964 c531 531 968 965 971 965 4 0 52 -47 107 -105z m-2684
-1554 c507 -130 848 -561 848 -1071 0 -454 -259 -858 -687 -1073 -365 -183
-825 -171 -1160 30 -442 266 -640 767 -499 1261 117 410 470 746 894 851 132
33 194 39 345 36 117 -3 160 -8 259 -34z"/>
<path fill="#000" d="M42529 34336 c-2 -2 -265 -7 -584 -10 -319 -4 -647 -9 -730 -11 -82
-2 -379 -7 -660 -10 -280 -3 -591 -7 -690 -10 -99 -3 -382 -7 -630 -10 -247
-3 -569 -7 -715 -10 -146 -3 -429 -7 -630 -10 -504 -7 -978 -14 -1345 -20
-170 -3 -485 -7 -700 -10 -773 -10 -887 -15 -920 -34 -62 -36 -71 -64 -79
-238 -3 -87 -7 -233 -7 -325 -2 -154 0 -169 20 -201 21 -35 31 -42 81 -57 14
-4 253 -4 530 1 278 4 696 10 930 13 234 3 547 8 695 11 149 3 439 7 645 10
206 3 510 7 675 10 165 3 460 7 655 10 610 9 1088 16 2010 30 179 3 494 7 700
10 797 11 912 15 950 34 43 22 67 62 74 121 3 25 8 169 11 320 5 251 4 278
-12 309 -32 62 -62 76 -173 78 -53 1 -99 1 -101 -1z"/>
<path fill="#000" d="M42329 32765 c-2 -1 -287 -6 -634 -9 -346 -4 -659 -8 -695 -11 -36
-2 -326 -7 -645 -10 -319 -3 -634 -7 -700 -10 -66 -3 -356 -7 -645 -10 -289
-3 -601 -7 -695 -10 -93 -3 -370 -7 -615 -10 -245 -3 -715 -10 -1045 -15 -330
-5 -798 -12 -1040 -15 -769 -10 -750 -9 -774 -61 -5 -12 -12 -127 -16 -256 -3
-128 -8 -286 -10 -352 -5 -129 5 -168 47 -182 20 -6 1273 4 1349 11 19 2 153
4 299 5 146 1 492 6 770 10 278 5 701 11 940 14 239 4 536 8 660 11 124 3 437
7 695 10 259 3 556 7 660 10 105 3 402 7 660 10 259 3 560 7 670 10 110 3 415
8 678 11 l478 6 29 24 c36 31 37 47 45 459 l6 310 -25 28 -25 27 -210 0 c-115
-1 -211 -3 -212 -5z"/>
<path fill="#000" d="M24765 43965 c-158 -35 -276 -98 -391 -208 -330 -313 -336 -820 -12
-1133 126 -123 255 -190 423 -219 110 -19 160 -19 269 0 173 30 302 99 431
229 161 163 235 336 235 552 0 443 -359 797 -803 793 -51 0 -119 -7 -152 -14z
m304 -95 c259 -49 480 -268 541 -535 17 -73 14 -229 -4 -310 -72 -305 -364
-535 -681 -535 -331 0 -623 231 -690 545 -78 368 148 732 515 829 64 17 244
20 319 6z"/>
<path fill="#000" d="M12595 23002 c-6 -4 -32 -48 -57 -98 -238 -471 -715 -971 -1243
-1305 -467 -296 -977 -496 -1585 -623 -91 -19 -167 -40 -171 -48 -25 -38 4
-73 58 -70 115 8 530 114 789 203 898 305 1649 869 2117 1589 71 110 167 291
167 316 0 36 -45 58 -75 36z"/>
<path fill="#000" d="M41948 15749 c-150 -184 -292 -474 -334 -681 -33 -165 -5 -383 69
-523 42 -80 141 -179 212 -211 142 -65 286 -20 330 105 21 61 19 122 -10 258
-13 65 -67 329 -121 587 -53 259 -99 479 -103 489 -7 18 -11 15 -43 -24z"/>
<path fill="#000" d="M37765 15006 c-108 -48 -114 -201 -11 -250 31 -14 183 -16 1603 -16
1473 0 1570 1 1602 18 52 26 76 65 76 122 0 57 -24 96 -76 122 -32 17 -128 18
-1599 18 -1282 -1 -1570 -3 -1595 -14z"/>
<path fill="#000" d="M42550 12560 c-55 -10 -107 -39 -146 -82 -49 -54 -66 -101 -66 -175
0 -145 111 -260 253 -262 180 -3 314 180 254 349 -42 118 -170 192 -295 170z
m3 -111 c26 -12 47 -47 47 -80 0 -33 -44 -69 -84 -69 -68 0 -101 86 -51 135
26 27 51 31 88 14z"/>
<path fill="#000" d="M32504 13418 c-81 -84 -1130 -1263 -1148 -1291 -9 -13 -14 -32 -10
-41 8 -20 43 -36 62 -29 9 4 1020 1131 1180 1316 36 42 39 58 16 81 -26 26
-47 19 -100 -36z"/>
<path fill="#000" d="M44157 11102 c-9 -10 -26 -40 -39 -67 -20 -43 -23 -67 -23 -175 0
-72 5 -142 12 -166 34 -109 98 -145 146 -82 79 104 76 399 -4 484 -27 29 -69
31 -92 6z"/>
<path fill="#000" d="M44701 11094 c-40 -50 -56 -121 -56 -244 0 -123 16 -194 56 -244 56
-71 138 5 154 145 4 30 9 65 11 78 5 36 -15 170 -32 211 -34 79 -93 104 -133
54z"/>
<path fill="#000" d="M13455 8869 c-234 -212 -249 -233 -201 -264 15 -10 30 -13 39 -8 8 4
114 98 235 208 222 199 241 222 210 253 -32 32 -61 13 -283 -189z"/>
<path fill="#000" d="M12088 8269 c-21 -12 -24 -62 -5 -77 33 -26 552 -206 812 -281 963
-277 1634 -299 1988 -64 72 48 92 72 82 103 -12 38 -51 36 -113 -8 -163 -113
-312 -152 -612 -157 -242 -5 -423 14 -735 76 -365 72 -837 210 -1236 360 -86
33 -158 59 -160 59 -2 0 -12 -5 -21 -11z"/>
<path fill="#000" d="M9208 8195 c-2 -2 -120 -6 -263 -10 -143 -4 -268 -11 -277 -16 -11
-6 -18 -21 -18 -39 0 -45 25 -53 149 -46 58 3 207 8 331 12 124 3 233 11 243
16 24 12 23 64 -3 78 -16 9 -153 13 -162 5z"/>
<path fill="#000" d="M9585 7494 c-145 -34 -355 -62 -555 -74 -244 -15 -416 -5 -687 41
-80 13 -98 10 -106 -20 -9 -36 22 -59 103 -76 289 -60 741 -60 1093 0 140 24
269 55 295 71 39 25 23 85 -22 83 -12 -1 -66 -12 -121 -25z"/>
<path fill="#000" d="M19820 37324 c-158 -43 -283 -183 -309 -349 -15 -98 -13 -381 4 -458
28 -133 114 -239 242 -300 l68 -32 5180 0 5180 0 75 36 c81 39 154 103 195
172 45 79 55 143 55 373 0 183 -3 221 -20 276 -38 123 -135 225 -257 271 l-58
22 -5150 2 c-4509 1 -5157 0 -5205 -13z m7815 -86 l2550 -3 53 -30 c69 -37
132 -108 155 -171 14 -41 17 -85 17 -279 0 -221 -1 -232 -24 -281 -45 -97
-128 -166 -226 -188 -34 -8 -1538 -10 -5192 -6 l-5143 5 -43 23 c-59 32 -122
97 -152 157 -25 49 -25 55 -25 290 0 225 1 243 22 287 48 104 152 182 261 196
31 4 1213 6 2627 5 1413 -2 3718 -4 5120 -5z"/>
<path fill="#000" d="M10577 37170 c-74 -13 -171 -64 -232 -121 -177 -167 -177 -461 0
-628 223 -211 566 -148 703 127 36 74 37 79 37 187 0 108 -1 113 -37 187 -67
135 -180 220 -332 249 -55 10 -71 10 -139 -1z m215 -122 c109 -50 176 -137
198 -256 27 -150 -49 -296 -188 -364 -60 -30 -76 -33 -152 -33 -102 0 -173 28
-239 94 -164 164 -123 446 79 551 90 47 209 50 302 8z"/>
<path fill="#000" d="M9396 35454 c-9 -8 -16 -21 -16 -27 0 -33 100 -381 112 -388 21 -14
44 -10 62 10 17 19 16 27 -30 198 -25 98 -53 188 -61 201 -16 26 -45 29 -67 6z"/>
<path fill="#000" d="M15481 35394 c-125 -33 -237 -129 -294 -251 l-31 -68 -7 -435 c-11
-657 -10 -1472 1 -1532 33 -172 173 -319 341 -357 28 -7 392 -11 1000 -11 923
0 959 1 1020 20 146 45 253 149 303 295 20 59 21 80 24 1000 3 695 0 954 -8
995 -36 166 -165 303 -325 345 -86 22 -1940 22 -2024 -1z m2070 -120 c85 -42
153 -125 181 -219 12 -42 10 -1885 -2 -1942 -20 -88 -70 -162 -146 -214 -91
-62 -36 -59 -1093 -59 -531 0 -980 4 -996 9 -91 26 -187 110 -228 199 l-22 47
-3 944 c-3 1048 -5 1016 63 1118 37 55 74 88 145 125 l45 23 950 5 c523 3 974
2 1003 -3 30 -4 76 -19 103 -33z"/>
<path fill="#000" d="M17187 34778 c-13 -18 -121 -186 -239 -373 -532 -839 -616 -969 -635
-982 -40 -27 -56 5 -208 402 -80 209 -153 396 -161 417 -16 36 -34 47 -66 40
-43 -9 -34 -45 127 -465 87 -227 164 -422 172 -435 38 -61 133 -80 193 -39 23
15 102 131 257 377 124 195 322 508 440 694 192 303 215 342 207 365 -15 41
-56 40 -87 -1z"/>
<path fill="#000" d="M9965 35000 c-172 -47 -205 -62 -205 -95 0 -7 9 -20 20 -30 19 -17
26 -16 207 31 102 27 192 55 200 62 19 20 16 60 -6 72 -25 13 -9 16 -216 -40z"/>
<path fill="#000" d="M9150 34783 c-91 -24 -170 -49 -177 -55 -16 -13 -17 -50 -1 -66 19
-19 40 -15 233 36 165 45 181 51 189 75 13 34 -7 57 -48 56 -17 0 -105 -21
-196 -46z"/>
<path fill="#000" d="M9610 34650 c-15 -15 -19 -27 -14 -48 4 -15 28 -103 53 -197 l46
-170 34 0 c59 0 60 14 7 217 -34 129 -54 188 -68 201 -26 22 -34 21 -58 -3z"/>
<path fill="#000" d="M19547 32450 c-149 -47 -258 -174 -288 -334 -36 -195 90 -401 284
-465 l62 -21 6220 2 6220 3 67 32 c94 44 160 109 206 202 36 72 37 79 37 180
-1 145 -22 198 -119 296 -53 54 -86 78 -131 96 l-60 24 -6220 2 c-6040 2
-6222 1 -6278 -17z m12535 -108 c36 -18 81 -49 99 -69 117 -134 112 -332 -13
-454 -23 -23 -68 -54 -98 -68 l-55 -26 -6205 0 -6205 0 -62 29 c-200 92 -256
346 -111 510 42 49 111 90 175 105 22 5 2655 8 6223 8 l6185 -2 67 -33z"/>
<path fill="#000" d="M15461 30844 c-124 -33 -236 -129 -294 -251 l-32 -68 -5 -320 c-11
-642 -11 -1589 0 -1645 32 -166 151 -301 311 -351 58 -18 107 -19 1024 -19
936 0 965 1 1028 20 145 45 255 153 303 300 17 51 19 119 22 990 2 676 0 952
-8 995 -34 175 -180 323 -351 355 -32 6 -421 10 -998 9 -794 0 -955 -3 -1000
-15z m2064 -116 c69 -36 133 -102 164 -168 l26 -55 0 -975 0 -975 -27 -57
c-49 -106 -143 -181 -258 -207 -29 -7 -376 -10 -990 -8 l-945 2 -65 31 c-79
38 -140 97 -177 172 l-28 57 0 965 c0 1081 -4 1013 73 1115 38 50 120 108 177
125 17 4 465 8 1015 7 l985 -2 50 -27z"/>
<path fill="#000" d="M17163 30222 c-16 -22 -215 -334 -443 -695 -228 -361 -422 -657 -430
-659 -27 -7 -47 3 -58 27 -6 14 -77 197 -158 407 -80 211 -152 393 -160 406
-10 15 -24 22 -44 22 -59 0 -54 -21 115 -463 86 -227 164 -422 172 -435 38
-61 133 -80 193 -39 20 13 68 77 124 167 51 80 248 391 439 692 191 302 347
556 347 566 0 54 -60 56 -97 4z"/>
<path fill="#000" d="M20602 29814 c-23 -16 -28 -39 -12 -64 8 -13 712 -16 6207 -20 l6198
-5 56 -26 c69 -33 127 -89 160 -155 20 -41 24 -64 24 -144 0 -80 -4 -102 -23
-138 -33 -63 -84 -114 -144 -148 l-53 -29 -6268 -5 c-6191 -5 -6269 -5 -6283
-24 -18 -25 -18 -41 2 -60 14 -15 597 -16 6265 -16 l6250 0 60 20 c224 76 347
304 280 519 -26 83 -62 141 -121 194 -62 56 -138 93 -216 106 -38 6 -2250 10
-6209 10 -5554 1 -6153 0 -6173 -15z"/>
<path fill="#000" d="M19621 27919 c-223 -44 -380 -263 -343 -480 30 -174 156 -310 323
-348 29 -7 1310 -11 3820 -11 3734 0 3778 0 3841 20 120 37 207 113 262 229
29 62 31 73 31 176 0 102 -2 115 -31 175 -61 128 -185 220 -326 240 -81 12
-7517 11 -7577 -1z m7651 -116 c66 -30 133 -96 165 -162 36 -74 39 -191 6
-263 -32 -69 -103 -141 -172 -172 l-59 -26 -3788 0 c-2382 0 -3801 4 -3822 10
-186 53 -286 271 -203 445 27 58 92 128 142 156 73 39 -40 38 3894 36 l3790
-2 47 -22z"/>
<path fill="#000" d="M41592 26600 c-490 -69 -897 -413 -1055 -890 -50 -153 -62 -232 -62
-425 1 -161 4 -191 27 -285 34 -135 67 -223 125 -330 198 -370 555 -607 982
-650 159 -17 349 8 521 68 431 150 764 552 844 1017 23 129 21 339 -4 467 -36
185 -64 243 -111 231 -33 -9 -38 -41 -18 -101 47 -137 68 -344 50 -499 -65
-558 -476 -998 -1008 -1078 -236 -36 -448 -2 -669 105 -318 154 -550 458 -623
816 -24 118 -29 328 -11 444 61 387 315 729 669 905 172 86 344 121 554 112
207 -8 392 -66 563 -177 81 -53 124 -51 124 7 0 62 -284 203 -500 248 -89 19
-310 27 -398 15z"/>
<path fill="#000" d="M37605 26570 c-3 -4 -12 -39 -20 -76 -35 -153 -30 -144 -80 -144
-118 0 -263 -58 -342 -138 -29 -29 -66 -81 -85 -119 -31 -64 -33 -74 -33 -173
0 -96 2 -110 29 -163 39 -75 126 -163 234 -233 209 -136 226 -151 254 -213 24
-52 18 -97 -18 -140 -88 -105 -356 -50 -576 119 l-26 20 -62 -117 c-35 -65
-66 -125 -71 -134 -16 -32 174 -143 314 -184 31 -9 57 -19 57 -23 0 -4 -11
-54 -25 -111 -14 -57 -24 -106 -21 -108 2 -2 54 -14 116 -27 77 -16 113 -20
116 -12 2 6 15 58 29 115 14 58 26 106 28 107 1 2 42 8 90 14 260 32 413 173
447 409 26 181 -60 315 -303 474 -173 114 -237 178 -237 239 0 36 37 88 75
104 97 40 294 -10 437 -112 34 -24 49 -30 56 -21 15 18 122 235 122 246 0 18
-133 89 -228 122 -73 25 -91 35 -88 48 15 47 45 185 41 189 -9 9 -226 48 -230
42z"/>
<path fill="#000" d="M28435 26408 c-11 -5 -189 -213 -395 -461 -206 -248 -1639 -1967
-3183 -3821 -1545 -1854 -2813 -3378 -2817 -3387 -6 -10 -4 -23 6 -37 15 -22
20 -22 252 -21 l237 0 80 97 c89 107 1528 1826 4137 4942 1533 1831 1707 2035
1732 2035 26 0 61 -40 335 -386 1386 -1749 2040 -2573 2176 -2745 88 -111 226
-284 306 -385 910 -1149 2793 -3525 2794 -3527 7 -8 641 0 649 8 13 13 23 -1
-332 437 -1889 2334 -3380 4175 -4491 5548 -738 913 -1356 1672 -1372 1688
-31 29 -76 35 -114 15z"/>
<path fill="#000" d="M41488 25987 l-77 -29 28 -77 28 -77 -63 -57 c-40 -37 -73 -78 -91
-115 -60 -123 -26 -283 76 -357 67 -49 136 -65 282 -66 147 -1 204 -13 232
-51 81 -109 -82 -223 -316 -222 l-79 0 7 -70 c3 -39 8 -88 11 -109 l6 -38 76
2 c69 2 159 17 203 34 13 5 22 -9 44 -69 15 -42 33 -76 39 -76 23 0 146 54
146 64 0 6 -12 44 -27 85 l-27 74 30 20 c101 72 157 166 162 277 8 155 -69
268 -213 312 -16 5 -106 13 -198 17 -145 7 -172 11 -195 28 -33 24 -41 82 -18
119 34 51 157 94 274 94 l73 0 -5 48 c-3 26 -8 73 -11 105 l-6 57 -62 0 c-34
0 -87 -7 -117 -15 -30 -8 -60 -15 -67 -15 -6 0 -21 29 -33 65 -12 36 -25 66
-28 68 -4 2 -42 -9 -84 -26z"/>
<path fill="#000" d="M29431 25463 c7 -10 24 -31 38 -48 l24 -30 2271 -5 2271 -5 42 -23
c91 -48 149 -117 176 -209 46 -155 -46 -335 -199 -393 -54 -20 -68 -20 -2039
-20 -1092 0 -1985 -3 -1985 -6 0 -3 17 -25 37 -50 l37 -44 1941 1 c2099 0
1986 -2 2092 53 249 130 300 475 100 669 -29 29 -75 63 -101 76 -109 53 25 51
-2435 51 -2175 0 -2283 -1 -2270 -17z"/>
<path fill="#000" d="M42055 22296 c-592 -98 -1039 -533 -1165 -1135 -108 -508 88 -1068
484 -1387 195 -157 427 -258 677 -295 102 -15 348 -7 444 14 424 94 774 366
968 752 158 317 199 686 111 1018 -28 108 -80 245 -102 270 -20 23 -45 22 -67
-4 -17 -18 -18 -24 -6 -52 87 -210 123 -376 123 -571 1 -295 -96 -591 -266
-817 -486 -643 -1397 -704 -1939 -130 -176 187 -300 439 -343 696 -24 150 -15
405 20 540 121 464 435 811 864 955 310 104 651 80 945 -66 98 -49 131 -54
147 -24 21 39 2 59 -103 110 -116 55 -194 83 -317 111 -111 26 -363 34 -475
15z"/>
<path fill="#000" d="M15475 21806 c-174 -55 -296 -194 -324 -366 -14 -87 -15 -1856 -1
-1931 31 -167 177 -312 348 -348 73 -15 1884 -15 1968 0 159 29 296 151 344
307 16 52 18 136 23 997 5 770 4 951 -8 1001 -36 162 -149 286 -306 335 -58
18 -106 19 -1032 18 -757 0 -981 -3 -1012 -13z m2055 -112 c79 -38 140 -97
177 -172 l28 -57 0 -965 c0 -924 -1 -967 -19 -1015 -40 -106 -136 -196 -237
-224 -33 -9 -280 -11 -1014 -9 l-970 3 -55 26 c-91 43 -163 128 -192 224 -4
16 -8 456 -8 977 0 1008 -2 967 48 1064 39 77 146 156 235 174 23 4 470 7 992
7 l950 -2 65 -31z"/>
<path fill="#000" d="M41898 21600 l-77 -40 35 -77 c19 -42 37 -79 40 -82 2 -3 -20 -30
-50 -60 -76 -78 -108 -146 -114 -243 -9 -163 74 -284 224 -323 70 -18 133 -19
274 -3 124 13 170 7 213 -32 26 -23 32 -36 32 -69 0 -25 -8 -51 -21 -68 -53
-72 -193 -131 -331 -140 -57 -4 -83 -10 -83 -18 0 -29 41 -210 50 -219 13 -13
148 9 236 39 41 14 77 25 79 25 3 0 22 -36 43 -80 l37 -80 80 41 c44 23 82 43
84 45 2 2 -14 42 -36 90 l-40 86 57 56 c31 32 69 84 86 117 26 54 29 70 29
155 0 81 -4 103 -26 150 -36 77 -80 124 -147 157 -52 26 -66 28 -172 28 -63 0
-149 -2 -190 -4 -134 -6 -149 -4 -181 28 -93 93 63 230 283 248 68 6 69 6 64
32 -3 14 -13 66 -22 115 l-17 88 -56 -6 c-30 -4 -92 -19 -137 -34 l-83 -28
-33 73 c-18 40 -37 72 -43 72 -5 0 -45 -18 -87 -39z"/>
<path fill="#000" d="M28180 21379 c-1119 -83 -2093 -795 -2516 -1838 -105 -260 -179 -574
-203 -861 -13 -161 -14 -876 -1 -900 11 -20 19 -20 2929 -20 2557 0 2920 2
2931 15 9 11 11 124 7 487 -5 526 -12 602 -81 883 -257 1035 -1042 1846 -2069
2134 -308 87 -679 124 -997 100z m450 -99 c368 -31 672 -117 1015 -285 278
-136 500 -293 724 -510 484 -470 773 -1061 850 -1740 12 -111 13 -129 12 -552
l-1 -343 -2841 0 -2841 0 5 443 c5 461 8 510 58 748 214 1038 1036 1894 2074
2159 311 79 633 107 945 80z"/>
<path fill="#000" d="M29463 20733 c-25 -26 -494 -535 -1042 -1131 -1052 -1144 -1037
-1126 -978 -1153 15 -7 31 -8 39 -3 28 17 2073 2246 2083 2270 12 31 -3 58
-35 62 -16 3 -34 -10 -67 -45z"/>
<path fill="#000" d="M29719 19788 c-11 -13 -271 -303 -578 -646 -573 -642 -591 -666 -544
-690 25 -13 54 -7 73 17 8 10 265 299 570 640 305 342 559 630 564 641 7 15 4
25 -9 40 -24 26 -49 25 -76 -2z"/>
<path fill="#000" d="M39240 20053 c-21 -15 -22 -21 -16 -92 5 -64 55 -556 71 -701 2 -25
14 -135 25 -245 11 -110 22 -218 25 -240 2 -22 7 -67 10 -100 3 -33 8 -78 10
-100 4 -37 23 -217 110 -1060 19 -187 48 -475 65 -640 16 -165 32 -316 35
-335 2 -19 7 -62 10 -95 20 -215 26 -250 46 -267 23 -20 58 -13 68 14 3 10
-19 267 -51 571 -31 303 -59 581 -63 617 -3 36 -8 81 -10 100 -3 19 -7 58 -9
85 -3 28 -10 95 -16 150 -6 55 -26 255 -46 445 -19 190 -37 363 -39 385 -3 22
-37 348 -75 725 -72 704 -78 759 -86 772 -14 22 -42 26 -64 11z"/>
<path fill="#000" d="M41002 18847 c-6 -7 -180 -626 -387 -1375 -302 -1096 -374 -1366
-365 -1382 15 -29 67 -27 80 3 16 34 750 2703 750 2724 0 39 -54 59 -78 30z"/>
<path fill="#000" d="M15491 17274 c-168 -45 -299 -186 -329 -354 -7 -34 -11 -408 -12
-986 0 -889 0 -933 19 -992 10 -34 30 -81 44 -104 32 -56 121 -139 178 -168
98 -51 79 -50 1106 -50 914 0 964 1 1022 19 33 10 80 30 103 44 54 32 139 121
167 175 49 96 49 86 52 1107 l3 960 -22 60 c-47 126 -143 226 -270 277 l-57
23 -975 2 c-829 2 -983 0 -1029 -13z m2032 -104 c99 -37 181 -128 212 -235 16
-54 17 -134 13 -999 l-4 -941 -27 -59 c-43 -94 -87 -140 -174 -183 l-77 -38
-970 0 -971 0 -59 24 c-80 32 -166 119 -195 196 -21 57 -21 57 -19 1029 l3
971 28 53 c55 105 137 171 240 195 42 9 277 11 1000 10 921 -3 947 -3 1000
-23z"/>
<path fill="#000" d="M19705 14461 c-48 -22 -79 -54 -100 -103 -13 -33 -15 -251 -15 -1996
0 -1472 3 -1967 12 -1993 17 -50 45 -83 91 -110 l42 -24 1035 -3 c761 -2 1049
0 1089 8 75 17 135 76 150 151 8 39 11 600 9 2000 l-3 1946 -30 48 c-20 32
-45 56 -74 72 l-44 23 -1061 0 c-1010 0 -1063 -1 -1101 -19z m2172 -96 c13 -9
28 -27 33 -41 16 -40 13 -3906 -2 -3939 -26 -57 23 -55 -1113 -55 l-1047 0
-29 29 -29 29 0 1969 c1 1609 3 1971 14 1985 33 44 9 43 1105 41 928 -2 1047
-4 1068 -18z"/>
<path fill="#000" d="M21436 13757 c-28 -29 -325 -351 -661 -716 -643 -699 -649 -706 -592
-732 15 -7 31 -8 40 -3 27 16 1327 1436 1327 1450 0 17 -35 54 -52 54 -6 0
-35 -24 -62 -53z"/>
<path fill="#000" d="M21172 12348 c-801 -891 -1082 -1213 -1082 -1240 0 -32 33 -52 62
-37 12 7 965 1066 1180 1313 29 33 35 65 16 84 -31 31 -56 13 -176 -120z"/>
<path fill="#000" d="M23652 14455 c-65 -33 -107 -88 -122 -158 -8 -37 -10 -592 -8 -1972
l3 -1920 22 -40 c37 -69 100 -116 173 -128 19 -3 487 -7 1040 -9 l1005 -3 48
24 c55 27 100 77 116 130 8 28 11 553 11 1977 0 1868 -1 1940 -19 1979 -10 22
-34 54 -52 72 -68 64 -18 61 -1141 69 l-1023 6 -53 -27z m2126 -98 c22 -12 41
-34 53 -62 19 -42 19 -88 17 -1962 -3 -1830 -4 -1920 -21 -1946 -10 -16 -32
-37 -50 -48 -32 -20 -42 -20 -1042 -13 -802 5 -1017 9 -1042 20 -18 7 -42 28
-53 46 -20 33 -20 41 -18 1976 l3 1944 38 35 39 35 1021 -4 c965 -3 1024 -4
1055 -21z"/>
<path fill="#000" d="M25259 12822 c-26 -26 -300 -330 -608 -676 -367 -411 -561 -637 -561
-651 0 -27 18 -45 46 -45 17 0 166 160 621 670 329 369 600 675 601 681 8 22
-9 57 -29 62 -16 4 -33 -6 -70 -41z"/>
</g>
</svg>
